# xmcd
#
# Track frame offsets:
#	183
#	35068
#	54643
#	64215
#	105390
#	119278
#	145313
#	173605
#	193123
#	210433
#	233008
#	242608
#	260128
#	286248
#
# Disc length: 4194 seconds
#
# Revision: 1
# Processed by: cddbd v1.5.2PL0 Copyright (c) Steve Scherf et al.
# Submitted via: audiograbber 1.83.01
#
DISCID=cc10600e
DTITLE=Tropical Jazz, - Compilation Jazz Samba
DYEAR=1995
DGENRE=Jazz
TTITLE0=01 - Grant Green - Tico Tico
TTITLE1=02 - Stan Getz - Corvado
TTITLE2=03 - Tito Puente - Tren Expresso
TTITLE3=04 - Sonny Rollins - the Night has 1000 yes
TTITLE4=05 - Mucho calor - Autimn leaves
TTITLE5=06 - Coleman Hawkins - Desafinado
TTITLE6=07 - Dizzy Gillespie - Mas que Nada
TTITLE7=08 - Paul Desmond - Samba de Orfeu
TTITLE8=09 - Latin Jazz Quintet - a night in Tunisia
TTITLE9=10 - Paquito d'Rivera - réunion
TTITLE10=11 - Gato Barbieri - Eclipse
TTITLE11=12 - Michel Camilo - Blue Bossa
TTITLE12=13 - Peter Erskine - Speak Low
TTITLE13=14 - Hilton Ruiz - the Sidewinder
EXTD=YEAR: 1995
EXTT0=
EXTT1=
EXTT2=
EXTT3=
EXTT4=
EXTT5=
EXTT6=
EXTT7=
EXTT8=
EXTT9=
EXTT10=
EXTT11=
EXTT12=
EXTT13=
PLAYORDER=
